<svg viewBox="0 0 1000 872" xmlns="http://www.w3.org/2000/svg" font-family="'Consolas','Menlo',monospace">
<title>Main.tscn 씬 계층 구조</title>
<desc>MainGame 아래 Systems/World/HudLayer/PauseLayer/TransitionLayer/DebugLayer 계층도</desc>
<rect width="1000" height="872" fill="#f4f4f8" rx="12"/>
<text x="500" y="32" text-anchor="middle" fill="#2a2a40" font-size="19" font-weight="bold" letter-spacing="1">Main.tscn — 씬 계층 구조</text>

<!-- OUTER MainGame -->
<rect x="20" y="46" width="960" height="812" rx="10" fill="#eceef3" stroke="#9aa0b0" stroke-width="2"/>
<text x="40" y="72" fill="#333344" font-size="15" font-weight="bold">MainGame (Node)</text>
<rect x="196" y="60" width="150" height="18" rx="9" fill="#fff" stroke="#9aa0b0"/>
<text x="271" y="73" text-anchor="middle" fill="#555566" font-size="10.5">Process Mode: Always</text>

<!-- ===== Systems ===== -->
<rect x="36" y="86" width="928" height="58" rx="7" fill="#fbf3e0" stroke="#d4a53a" stroke-width="1.5"/>
<text x="52" y="108" fill="#8a5f10" font-size="13" font-weight="bold">Systems (Node)</text>
<rect x="52" y="114" width="220" height="24" rx="4" fill="#f5e4c0"/>
<text x="62" y="130" fill="#79510c" font-size="11.5">GameManager</text>
<rect x="176" y="118" width="90" height="16" rx="8" fill="#fff7e6" stroke="#d4a53a"/>
<text x="221" y="130" text-anchor="middle" fill="#9a7020" font-size="9.5">game_manager</text>

<!-- ===== World ===== -->
<rect x="36" y="152" width="928" height="338" rx="7" fill="#e8eef4" stroke="#6a86b0" stroke-width="1.5"/>
<text x="52" y="174" fill="#33507a" font-size="13" font-weight="bold">World (Node3D)</text>
<rect x="188" y="160" width="80" height="18" rx="9" fill="#fff" stroke="#6a86b0"/>
<text x="228" y="173" text-anchor="middle" fill="#4a688e" font-size="10.5">Pausable</text>
<rect x="52" y="182" width="250" height="24" rx="4" fill="#dbe6f2"/>
<text x="62" y="198" fill="#3a577e" font-size="11">TopDownCamera (직교 탑다운)</text>

<!-- World: LevelRoot -->
<text x="60" y="232" fill="#8a5f10" font-size="12" font-weight="bold">LevelRoot · 배경</text>
<rect x="52" y="240" width="286" height="30" rx="4" fill="#f5e4c0"/>
<text x="62" y="259" fill="#79510c" font-size="11.5">Ground</text>
<rect x="52" y="276" width="286" height="30" rx="4" fill="#f5e4c0"/>
<text x="62" y="295" fill="#79510c" font-size="11.5">Obstacle</text>
<rect x="240" y="280" width="88" height="16" rx="8" fill="#fff7e6" stroke="#d4a53a"/>
<text x="284" y="292" text-anchor="middle" fill="#9a7020" font-size="9.5">obstacle</text>
<rect x="52" y="312" width="286" height="30" rx="4" fill="#f5e4c0"/>
<text x="62" y="331" fill="#79510c" font-size="11.5">ParkingSpot</text>
<rect x="248" y="316" width="80" height="16" rx="8" fill="#e6f7ea" stroke="#2a9d5f"/>
<text x="288" y="328" text-anchor="middle" fill="#1f8a50" font-size="9.5">parking</text>

<!-- World: EntityRoot -->
<text x="360" y="232" fill="#5a2fa0" font-size="12" font-weight="bold">EntityRoot · 핵심</text>
<rect x="352" y="240" width="286" height="104" rx="5" fill="#cfe3f7" stroke="#3a7bd5" stroke-width="1.3"/>
<text x="362" y="260" fill="#134a86" font-size="12" font-weight="bold">Marshaller</text>
<rect x="470" y="247" width="92" height="16" rx="8" fill="#eaf2fc" stroke="#3a7bd5"/>
<text x="516" y="259" text-anchor="middle" fill="#1a5fa8" font-size="9.5">marshaller</text>
<text x="366" y="280" fill="#2f5f92" font-size="11">· MoveInput</text>
<text x="366" y="298" fill="#2f5f92" font-size="11">· SignalInput</text>
<rect x="452" y="287" width="104" height="16" rx="8" fill="#eaf2fc" stroke="#3a7bd5"/>
<text x="504" y="299" text-anchor="middle" fill="#1a5fa8" font-size="9.5">signal_input</text>
<text x="366" y="316" fill="#2f5f92" font-size="11">· MarshallerMesh</text>

<rect x="352" y="352" width="286" height="128" rx="5" fill="#e0d0f5" stroke="#7b4fc9" stroke-width="1.3"/>
<text x="362" y="372" fill="#48208a" font-size="12" font-weight="bold">Aircraft</text>
<text x="366" y="392" fill="#5f3fa0" font-size="11">· AircraftMesh · NoseMarker</text>
<text x="366" y="410" fill="#5f3fa0" font-size="11">· VisionCone</text>
<text x="366" y="428" fill="#5f3fa0" font-size="11">· VisionConeVisual (디버그)</text>
<text x="366" y="446" fill="#5f3fa0" font-size="11">· AircraftFSM</text>
<text x="366" y="464" fill="#5f3fa0" font-size="11">· AircraftHitbox</text>

<!-- World: EffectRoot -->
<text x="664" y="232" fill="#556" font-size="12" font-weight="bold">EffectRoot · 효과</text>
<rect x="656" y="240" width="286" height="60" rx="5" fill="#eceef3" stroke="#a8aec0" stroke-width="1.2" stroke-dasharray="5 3"/>
<text x="799" y="275" text-anchor="middle" fill="#8a90a2" font-size="11">(향후 파티클/시각 효과)</text>

<!-- ===== HudLayer ===== -->
<rect x="36" y="498" width="928" height="120" rx="7" fill="#dff3e8" stroke="#2a9d5f" stroke-width="1.5"/>
<text x="52" y="520" fill="#1a7a48" font-size="13" font-weight="bold">HudLayer (CanvasLayer) → HudRoot</text>
<rect x="360" y="506" width="176" height="18" rx="9" fill="#fff" stroke="#2a9d5f"/>
<text x="448" y="519" text-anchor="middle" fill="#1f8a50" font-size="10.5">layer 10 · Pausable · Ignore</text>
<rect x="52" y="532" width="286" height="72" rx="4" fill="#c8ecd8"/>
<text x="62" y="556" fill="#136436" font-size="12" font-weight="bold">SignalIndicator</text>
<text x="62" y="576" fill="#2f8058" font-size="10.5">현재 수신호 아이콘</text>
<rect x="352" y="532" width="286" height="72" rx="4" fill="#c8ecd8"/>
<text x="362" y="556" fill="#136436" font-size="12" font-weight="bold">GameOverHUD</text>
<rect x="470" y="540" width="108" height="16" rx="8" fill="#e6f7ea" stroke="#2a9d5f"/>
<text x="524" y="552" text-anchor="middle" fill="#1f8a50" font-size="9.5">game_over_hud</text>
<text x="362" y="576" fill="#2f8058" font-size="10.5">Always · 일시정지 중 표시</text>
<rect x="652" y="532" width="286" height="72" rx="4" fill="#c8ecd8"/>
<text x="662" y="556" fill="#136436" font-size="12" font-weight="bold">SuccessHUD</text>
<rect x="770" y="540" width="98" height="16" rx="8" fill="#e6f7ea" stroke="#2a9d5f"/>
<text x="819" y="552" text-anchor="middle" fill="#1f8a50" font-size="9.5">success_hud</text>
<text x="662" y="576" fill="#2f8058" font-size="10.5">Always · 일시정지 중 표시</text>

<!-- ===== PauseLayer ===== -->
<rect x="36" y="626" width="928" height="48" rx="7" fill="#e8e4f5" stroke="#6a5ac0" stroke-width="1.5"/>
<text x="52" y="655" fill="#463a90" font-size="13" font-weight="bold">PauseLayer → PauseRoot</text>
<rect x="300" y="641" width="150" height="18" rx="9" fill="#fff" stroke="#6a5ac0"/>
<text x="375" y="654" text-anchor="middle" fill="#5a4ab0" font-size="10.5">layer 20 · Always</text>
<text x="820" y="655" text-anchor="end" fill="#8a80b8" font-size="11">(향후 일시정지 메뉴)</text>

<!-- ===== TransitionLayer ===== -->
<rect x="36" y="682" width="928" height="48" rx="7" fill="#dceef0" stroke="#2a9098" stroke-width="1.5"/>
<text x="52" y="711" fill="#1a6a72" font-size="13" font-weight="bold">TransitionLayer → TransitionRoot</text>
<rect x="330" y="697" width="156" height="18" rx="9" fill="#fff" stroke="#2a9098"/>
<text x="408" y="710" text-anchor="middle" fill="#1f7a82" font-size="10.5">layer 100 · Always</text>
<text x="820" y="711" text-anchor="end" fill="#7aa8ac" font-size="11">(향후 장면 전환 연출)</text>

<!-- ===== DebugLayer ===== -->
<rect x="36" y="738" width="928" height="78" rx="7" fill="#ececf0" stroke="#808090" stroke-width="1.5"/>
<text x="52" y="760" fill="#4a4a58" font-size="13" font-weight="bold">DebugLayer → DebugRoot</text>
<rect x="300" y="746" width="156" height="18" rx="9" fill="#fff" stroke="#808090"/>
<text x="378" y="759" text-anchor="middle" fill="#5a5a6a" font-size="10.5">layer 128 · Always</text>
<rect x="52" y="772" width="286" height="32" rx="4" fill="#dcdce4"/>
<text x="62" y="792" fill="#3a3a48" font-size="11.5" font-weight="bold">DebugHUD — v0.1.0 · FPS</text>

<!-- legend note -->
<text x="948" y="792" text-anchor="end" fill="#8a8a98" font-size="10.5">[ ] = 노드가 속한 그룹 (참조는 그룹으로 조회)</text>
</svg>
